<svg xmlns="http://www.w3.org/2000/svg" font-family="ui-sans-serif,system-ui,Helvetica,Arial,sans-serif" viewBox="0 0 980 620"><defs><linearGradient id="brain" x1="0" x2="0" y1="0" y2="1"><stop offset="0" stop-color="#1e293b"/><stop offset="1" stop-color="#0f172a"/></linearGradient><marker id="arr" markerHeight="8" markerWidth="8" orient="auto" refX="9" refY="5" viewBox="0 0 10 10"><path fill="#64748b" d="M0,0 L10,5 L0,10 z"/></marker></defs><rect width="980" height="620" fill="#f8fafc"/><text x="490" y="42" fill="#0f172a" font-size="22" font-weight="700" text-anchor="middle">agentic-stack — one brain, many harnesses</text><text x="490" y="66" fill="#475569" font-size="13" text-anchor="middle">Memory + Skills + Protocols stay constant. Swap the harness; keep the knowledge.</text><g><text x="0" y="-8" fill="#334155" font-size="12" font-weight="600" transform="translate(40,100)">HARNESSES (10 adapters)</text><g fill="#0f172a" font-size="11"><g transform="translate(40,100) translate(0,0)"><rect width="82" height="50" fill="#fff" stroke="#94a3b8" rx="8"/><text x="41" y="20" font-weight="600" text-anchor="middle">Claude Code</text><text x="41" y="37" fill="#64748b" font-size="9" text-anchor="middle">CLAUDE.md + hooks</text></g><g transform="translate(40,100) translate(91,0)"><rect width="82" height="50" fill="#fff" stroke="#94a3b8" rx="8"/><text x="41" y="20" font-weight="600" text-anchor="middle">Cursor</text><text x="41" y="37" fill="#64748b" font-size="9" text-anchor="middle">.cursor/rules</text></g><g transform="translate(40,100) translate(182,0)"><rect width="82" height="50" fill="#fff" stroke="#94a3b8" rx="8"/><text x="41" y="20" font-weight="600" text-anchor="middle">Windsurf</text><text x="41" y="37" fill="#64748b" font-size="9" text-anchor="middle">.windsurfrules</text></g><g transform="translate(40,100) translate(273,0)"><rect width="82" height="50" fill="#fff" stroke="#94a3b8" rx="8"/><text x="41" y="20" font-weight="600" text-anchor="middle">OpenCode</text><text x="41" y="37" fill="#64748b" font-size="9" text-anchor="middle">AGENTS.md + cfg</text></g><g transform="translate(40,100) translate(364,0)"><rect width="82" height="50" fill="#fff" stroke="#94a3b8" rx="8"/><text x="41" y="20" font-weight="600" text-anchor="middle">OpenClaw</text><text x="41" y="37" fill="#64748b" font-size="9" text-anchor="middle">system prompt</text></g><g transform="translate(40,100) translate(455,0)"><rect width="82" height="50" fill="#fff" stroke="#94a3b8" rx="8"/><text x="41" y="20" font-weight="600" text-anchor="middle">Hermes</text><text x="41" y="37" fill="#64748b" font-size="9" text-anchor="middle">AGENTS.md</text></g><g transform="translate(40,100) translate(546,0)"><rect width="82" height="50" fill="#fff" stroke="#94a3b8" rx="8"/><text x="41" y="20" font-weight="600" text-anchor="middle">Pi</text><text x="41" y="37" fill="#64748b" font-size="9" text-anchor="middle">.pi/skills symlink</text></g><g transform="translate(40,100) translate(637,0)"><rect width="82" height="50" fill="#fff" stroke="#94a3b8" rx="8"/><text x="41" y="20" font-weight="600" text-anchor="middle">Codex</text><text x="41" y="37" fill="#64748b" font-size="9" text-anchor="middle">.agents/skills</text></g><g transform="translate(40,100) translate(728,0)"><rect width="82" height="50" fill="#fff" stroke="#94a3b8" rx="8"/><text x="41" y="20" font-weight="600" text-anchor="middle">Standalone</text><text x="41" y="37" fill="#64748b" font-size="9" text-anchor="middle">run.py</text></g><g transform="translate(40,100) translate(819,0)"><rect width="82" height="50" fill="#fff" stroke="#94a3b8" rx="8"/><text x="41" y="20" font-weight="600" text-anchor="middle">Antigravity</text><text x="41" y="37" fill="#64748b" font-size="9" text-anchor="middle">ANTIGRAVITY.md</text></g></g></g><g fill="none" stroke="#64748b" stroke-width="1.5" marker-end="url(#arr)"><path d="M81,160 L210,215"/><path d="M172,160 L272,215"/><path d="M263,160 L334,215"/><path d="M354,160 L396,215"/><path d="M445,160 L458,215"/><path d="M536,160 L520,215"/><path d="M627,160 L582,215"/><path d="M718,160 L644,215"/><path d="M809,160 L706,215"/><path d="M900,160 L768,215"/></g><g transform="translate(180,215)"><rect width="620" height="330" fill="url(#brain)" rx="16"/><text x="310" y="30" fill="#e2e8f0" font-size="14" font-weight="700" letter-spacing="2" text-anchor="middle">.agent/ — the portable brain</text><g transform="translate(20,55)"><rect width="180" height="250" fill="#0b1220" stroke="#334155" rx="10"/><text x="90" y="22" fill="#fbbf24" font-size="13" font-weight="600" text-anchor="middle">MEMORY</text><g fill="#cbd5e1" font-size="11"><text x="14" y="50">working/ — live task state</text><text x="14" y="68">episodic/ — rich reflections</text><text x="14" y="86">semantic/ — distilled lessons</text><text x="14" y="104">personal/ — user conventions</text><text x="14" y="140" fill="#94a3b8" font-size="10">auto_dream.py nightly:</text><text x="14" y="156" fill="#94a3b8" font-size="10">promote · decay · archive</text><text x="14" y="185" fill="#94a3b8" font-size="10">learn / recall / show (v0.7+)</text><text x="14" y="218" fill="#64748b" font-size="10">salience = recency × pain</text><text x="14" y="232" fill="#64748b" font-size="10">× importance × rec.</text></g></g><g transform="translate(220,55)"><rect width="180" height="250" fill="#0b1220" stroke="#334155" rx="10"/><text x="90" y="22" fill="#34d399" font-size="13" font-weight="600" text-anchor="middle">SKILLS</text><g fill="#cbd5e1" font-size="11"><text x="14" y="50">_index.md (discovery)</text><text x="14" y="68">_manifest.jsonl (machine)</text><text x="14" y="100">skillforge</text><text x="14" y="118">memory-manager</text><text x="14" y="136">git-proxy</text><text x="14" y="154">debug-investigator</text><text x="14" y="172">deploy-checklist</text><text x="14" y="205" fill="#94a3b8" font-size="10">progressive disclosure:</text><text x="14" y="221" fill="#94a3b8" font-size="10">manifest always loaded</text><text x="14" y="237" fill="#94a3b8" font-size="10">SKILL.md on trigger only</text></g></g><g transform="translate(420,55)"><rect width="180" height="250" fill="#0b1220" stroke="#334155" rx="10"/><text x="90" y="22" fill="#60a5fa" font-size="13" font-weight="600" text-anchor="middle">PROTOCOLS</text><g fill="#cbd5e1" font-size="11"><text x="14" y="50">permissions.md</text><text x="14" y="68">delegation.md</text><text x="14" y="86">hook_patterns.json</text><text x="14" y="104" fill="#94a3b8" font-size="10">tune YOUR stack (v0.8+)</text><text x="14" y="132">tool_schemas/</text><text x="14" y="150">github.schema.json</text><text x="14" y="168">shell.schema.json</text><text x="14" y="186">api.schema.json</text><text x="14" y="215" fill="#94a3b8" font-size="10">pre_tool_call hook:</text><text x="14" y="231" fill="#94a3b8" font-size="10">allow · deny · approval</text></g></g></g><g><text x="310" y="0" fill="#475569" font-size="12" text-anchor="middle" transform="translate(180,565)">feedback loops: skills → memory (logs) → skills (self-rewrite) → protocols (constraint escalation)</text></g></svg>