<svg xmlns="http://www.w3.org/2000/svg" viewBox="0 0 980 620" font-family="ui-sans-serif,system-ui,Helvetica,Arial,sans-serif">
  <defs>
    <linearGradient id="brain" x1="0" x2="0" y1="0" y2="1">
      <stop offset="0" stop-color="#1e293b"/>
      <stop offset="1" stop-color="#0f172a"/>
    </linearGradient>
    <marker id="arr" viewBox="0 0 10 10" refX="9" refY="5" markerWidth="8" markerHeight="8" orient="auto">
      <path d="M0,0 L10,5 L0,10 z" fill="#64748b"/>
    </marker>
  </defs>

  <rect width="980" height="620" fill="#f8fafc"/>

  <text x="490" y="42" text-anchor="middle" font-size="22" font-weight="700" fill="#0f172a">agentic-stack — one brain, many harnesses</text>
  <text x="490" y="66" text-anchor="middle" font-size="13" fill="#475569">Memory + Skills + Protocols stay constant. Swap the harness; keep the knowledge.</text>

  <!-- Harness row -->
  <g transform="translate(40,100)">
    <text x="0" y="-8" font-size="12" font-weight="600" fill="#334155">HARNESSES (adapters)</text>
    <g font-size="12" fill="#0f172a">
      <g transform="translate(0,0)">
        <rect width="130" height="50" rx="8" fill="#fff" stroke="#94a3b8"/>
        <text x="65" y="20" text-anchor="middle" font-weight="600">Claude Code</text>
        <text x="65" y="37" text-anchor="middle" font-size="10" fill="#64748b">CLAUDE.md + hooks</text>
      </g>
      <g transform="translate(140,0)">
        <rect width="130" height="50" rx="8" fill="#fff" stroke="#94a3b8"/>
        <text x="65" y="20" text-anchor="middle" font-weight="600">Cursor</text>
        <text x="65" y="37" text-anchor="middle" font-size="10" fill="#64748b">.cursor/rules/*.mdc</text>
      </g>
      <g transform="translate(280,0)">
        <rect width="130" height="50" rx="8" fill="#fff" stroke="#94a3b8"/>
        <text x="65" y="20" text-anchor="middle" font-weight="600">Windsurf</text>
        <text x="65" y="37" text-anchor="middle" font-size="10" fill="#64748b">.windsurfrules</text>
      </g>
      <g transform="translate(420,0)">
        <rect width="130" height="50" rx="8" fill="#fff" stroke="#94a3b8"/>
        <text x="65" y="20" text-anchor="middle" font-weight="600">OpenCode</text>
        <text x="65" y="37" text-anchor="middle" font-size="10" fill="#64748b">AGENTS.md + config</text>
      </g>
      <g transform="translate(560,0)">
        <rect width="130" height="50" rx="8" fill="#fff" stroke="#94a3b8"/>
        <text x="65" y="20" text-anchor="middle" font-weight="600">OpenClaw</text>
        <text x="65" y="37" text-anchor="middle" font-size="10" fill="#64748b">system prompt</text>
      </g>
      <g transform="translate(700,0)">
        <rect width="130" height="50" rx="8" fill="#fff" stroke="#94a3b8"/>
        <text x="65" y="20" text-anchor="middle" font-weight="600">Hermes</text>
        <text x="65" y="37" text-anchor="middle" font-size="10" fill="#64748b">AGENTS.md</text>
      </g>
      <g transform="translate(840,0)">
        <rect width="60" height="50" rx="8" fill="#fff" stroke="#94a3b8"/>
        <text x="30" y="20" text-anchor="middle" font-weight="600">DIY</text>
        <text x="30" y="37" text-anchor="middle" font-size="10" fill="#64748b">Python</text>
      </g>
    </g>
  </g>

  <!-- Arrows down to brain -->
  <g stroke="#64748b" stroke-width="1.5" fill="none" marker-end="url(#arr)">
    <path d="M105,160 L300,210"/>
    <path d="M245,160 L340,210"/>
    <path d="M385,160 L420,210"/>
    <path d="M525,160 L500,210"/>
    <path d="M665,160 L560,210"/>
    <path d="M805,160 L640,210"/>
    <path d="M905,160 L680,210"/>
  </g>

  <!-- Brain box -->
  <g transform="translate(180,215)">
    <rect width="620" height="330" rx="16" fill="url(#brain)"/>
    <text x="310" y="30" text-anchor="middle" font-size="14" font-weight="700" fill="#e2e8f0" letter-spacing="2">.agent/ — the portable brain</text>

    <!-- Memory column -->
    <g transform="translate(20,55)">
      <rect width="180" height="250" rx="10" fill="#0b1220" stroke="#334155"/>
      <text x="90" y="22" text-anchor="middle" font-size="13" font-weight="600" fill="#fbbf24">MEMORY</text>
      <g font-size="11" fill="#cbd5e1">
        <text x="14" y="50">working/ — live task state</text>
        <text x="14" y="78">episodic/ — what happened</text>
        <text x="14" y="106">semantic/ — distilled lessons</text>
        <text x="14" y="134">personal/ — user conventions</text>
        <text x="14" y="175" font-size="10" fill="#94a3b8">auto_dream.py nightly:</text>
        <text x="14" y="191" font-size="10" fill="#94a3b8">  promote · decay · archive</text>
        <text x="14" y="225" font-size="10" fill="#64748b">salience = recency × pain</text>
        <text x="14" y="239" font-size="10" fill="#64748b">         × importance × rec.</text>
      </g>
    </g>

    <!-- Skills column -->
    <g transform="translate(220,55)">
      <rect width="180" height="250" rx="10" fill="#0b1220" stroke="#334155"/>
      <text x="90" y="22" text-anchor="middle" font-size="13" font-weight="600" fill="#34d399">SKILLS</text>
      <g font-size="11" fill="#cbd5e1">
        <text x="14" y="50">_index.md (discovery)</text>
        <text x="14" y="68">_manifest.jsonl (machine)</text>
        <text x="14" y="100">skillforge</text>
        <text x="14" y="118">memory-manager</text>
        <text x="14" y="136">git-proxy</text>
        <text x="14" y="154">debug-investigator</text>
        <text x="14" y="172">deploy-checklist</text>
        <text x="14" y="205" font-size="10" fill="#94a3b8">progressive disclosure:</text>
        <text x="14" y="221" font-size="10" fill="#94a3b8">  manifest always loaded</text>
        <text x="14" y="237" font-size="10" fill="#94a3b8">  SKILL.md on trigger only</text>
      </g>
    </g>

    <!-- Protocols column -->
    <g transform="translate(420,55)">
      <rect width="180" height="250" rx="10" fill="#0b1220" stroke="#334155"/>
      <text x="90" y="22" text-anchor="middle" font-size="13" font-weight="600" fill="#60a5fa">PROTOCOLS</text>
      <g font-size="11" fill="#cbd5e1">
        <text x="14" y="50">permissions.md</text>
        <text x="14" y="68">delegation.md</text>
        <text x="14" y="96">tool_schemas/</text>
        <text x="14" y="114">  github.schema.json</text>
        <text x="14" y="132">  shell.schema.json</text>
        <text x="14" y="150">  api.schema.json</text>
        <text x="14" y="195" font-size="10" fill="#94a3b8">pre_tool_call hook:</text>
        <text x="14" y="211" font-size="10" fill="#94a3b8">  allow · deny · approval</text>
        <text x="14" y="239" font-size="10" fill="#64748b">blocked means blocked</text>
      </g>
    </g>
  </g>

  <!-- Feedback loop -->
  <g transform="translate(180,565)">
    <text x="310" y="0" text-anchor="middle" font-size="12" fill="#475569">feedback loops: skills → memory (logs) → skills (self-rewrite) → protocols (constraint escalation)</text>
  </g>
</svg>
